PathFileType	4	(X/Y/Z)	tour_sanitized_100ms.trc
DataRate	CameraRate	NumFrames	NumMarkers	Units	OrigDataRate	OrigDataStartFrame	OrigNumFrames
360.00	360.00	7	33	m	360.00	1	37
Frame#	Time	WaistLeft			WaistRight			WaistLBack			WaistRBack			BackTop			BackLeft			BackRight			HeadTop			HeadFront			HeadSide			LShoulderTop			LShoulderBack			LElbowOut			LUArmHigh			LWristTop			RShoulderBack			RElbowOut			RUArmHigh			RWristTop			LKneeOut			LToeIn			LToeOut			LAnkleOut			RKneeOut			RToeIn			RToeOut			RAnkleOut			Marker_2:2:1			Marker_2:2:2			Marker_2:2:3			Marker_3:3:1			Marker_3:3:2			Marker_3:3:3		
		X1	Y1	Z1	X2	Y2	Z2	X3	Y3	Z3	X4	Y4	Z4	X5	Y5	Z5	X6	Y6	Z6	X7	Y7	Z7	X8	Y8	Z8	X9	Y9	Z9	X10	Y10	Z10	X11	Y11	Z11	X12	Y12	Z12	X13	Y13	Z13	X14	Y14	Z14	X15	Y15	Z15	X16	Y16	Z16	X17	Y17	Z17	X18	Y18	Z18	X19	Y19	Z19	X20	Y20	Z20	X21	Y21	Z21	X22	Y22	Z22	X23	Y23	Z23	X24	Y24	Z24	X25	Y25	Z25	X26	Y26	Z26	X27	Y27	Z27	X28	Y28	Z28	X29	Y29	Z29	X30	Y30	Z30	X31	Y31	Z31	X32	Y32	Z32	X33	Y33	Z33

1	0.000000000	1.097355	1.006788	0.124538	1.089030	1.022471	-0.219882	1.231331	1.060967	0.035352	1.234561	1.062557	-0.133804	0.917241	1.497592	-0.094018	1.054614	1.385130	0.017381	1.047433	1.360760	-0.163135	0.652929	1.666458	-0.098437	0.574894	1.531828	-0.094415	0.695464	1.606363	0.013328	0.813235	1.427428	0.118288	0.962813	1.486545	0.065749	0.939441	1.106696	0.129754	0.949079	1.266459	0.173430	0.833863	0.865529	0.060262	0.921961	1.434505	-0.231578	0.902653	1.020821	-0.182321	0.908206	1.175159	-0.267382	0.794134	0.799024	-0.062400	1.092899	0.510247	0.228049	0.987291	0.051840	0.226015	1.021415	0.043539	0.327024	1.165770	0.097668	0.270679	1.045758	0.528341	-0.297611	0.981318	0.036333	-0.288875	0.979280	0.038909	-0.406496	1.117883	0.118113	-0.377877	0.124871	0.049426	0.046689	0.035568	0.072974	0.045298	0.041735	0.049740	-0.000876	0.621161	0.521205	0.064629	0.669163	0.574404	0.028137	0.706025	0.607651	0.059954
2	0.002777778	1.097402	1.006799	0.124521	1.089080	1.022453	-0.219907	1.231387	1.060967	0.035328	1.234617	1.062531	-0.133822	0.917290	1.497577	-0.094024	1.054678	1.385123	0.017361	1.047474	1.360742	-0.163144	0.652996	1.666458	-0.098423	0.574942	1.531826	-0.094422	0.695524	1.606363	0.013331	0.813297	1.427419	0.118268	0.962870	1.486529	0.065748	0.939436	1.106676	0.129677	0.949102	1.266429	0.173383	0.833866	0.865514	0.060220	0.921999	1.434496	-0.231591	0.902669	1.020798	-0.182305	0.908252	1.175143	-0.267411	0.794170	0.799025	-0.062434	1.092919	0.510256	0.228055	0.987302	0.051863	0.226027	1.021406	0.043534	0.327010	1.165776	0.097666	0.270689	1.045749	0.528330	-0.297632	0.981330	0.036326	-0.288870	0.979291	0.038894	-0.406496	1.117888	0.118106	-0.377892	0.124868	0.049412	0.046622	0.035567	0.072977	0.045250	0.041719	0.049738	-0.000934	0.621189	0.521195	0.064544	0.669176	0.574391	0.028069	0.706040	0.607644	0.059892
3	0.005555556	1.097442	1.006786	0.124481	1.089132	1.022444	-0.219921	1.231440	1.060960	0.035301	1.234681	1.062531	-0.133854	0.917358	1.497589	-0.094042	1.054740	1.385116	0.017337	1.047513	1.360743	-0.163168	0.653068	1.666463	-0.098423	0.574989	1.531845	-0.094424	0.695575	1.606359	0.013328	0.813325	1.427397	0.118262	0.962927	1.486514	0.065720	0.939460	1.106666	0.129626	0.949141	1.266401	0.173367	0.833876	0.865502	0.060218	0.922042	1.434497	-0.231612	0.902695	1.020803	-0.182305	0.908273	1.175134	-0.267410	0.794216	0.799003	-0.062436	1.092958	0.510258	0.228039	0.987323	0.051869	0.226040	1.021417	0.043530	0.327031	1.165789	0.097649	0.270686	1.045793	0.528356	-0.297643	0.981325	0.036321	-0.288858	0.979294	0.038902	-0.406489	1.117908	0.118113	-0.377882	0.124853	0.049415	0.046543	0.035573	0.072984	0.045184	0.041710	0.049741	-0.000994	0.621205	0.521177	0.064468	0.669191	0.574373	0.028005	0.706059	0.607628	0.059836
4	0.008333333	1.097490	1.006775	0.124449	1.089177	1.022434	-0.219960	1.231465	1.060946	0.035272	1.234724	1.062505	-0.133872	0.917376	1.497564	-0.094059	1.054773	1.385093	0.017304	1.047540	1.360734	-0.163187	0.653114	1.666455	-0.098413	0.575043	1.531827	-0.094420	0.695640	1.606348	0.013341	0.813394	1.427385	0.118226	0.962982	1.486496	0.065719	0.939478	1.106662	0.129582	0.949164	1.266353	0.173337	0.833898	0.865474	0.060176	0.922084	1.434479	-0.231634	0.902702	1.020815	-0.182320	0.908280	1.175120	-0.267440	0.794249	0.798998	-0.062480	1.092992	0.510265	0.228034	0.987327	0.051863	0.226033	1.021430	0.043533	0.327017	1.165785	0.097644	0.270678	1.045761	0.528343	-0.297656	0.981330	0.036325	-0.288868	0.979289	0.038894	-0.406499	1.117912	0.118141	-0.377906	0.124858	0.049417	0.046482	0.035562	0.072984	0.045100	0.041688	0.049745	-0.001063	0.621231	0.521169	0.064432	0.669185	0.574374	0.027951	0.706037	0.607604	0.059765
5	0.011111111	1.097524	1.006776	0.124403	1.089251	1.022400	-0.219980	1.231528	1.060943	0.035246	1.234781	1.062474	-0.133913	0.917437	1.497554	-0.094067	1.054824	1.385079	0.017281	1.047605	1.360747	-0.163214	0.653182	1.666448	-0.098409	0.575086	1.531847	-0.094440	0.695680	1.606336	0.013336	0.813470	1.427374	0.118225	0.963044	1.486467	0.065707	0.939477	1.106630	0.129540	0.949200	1.266318	0.173314	0.833906	0.865464	0.060151	0.922127	1.434483	-0.231649	0.902734	1.020829	-0.182322	0.908293	1.175084	-0.267433	0.794284	0.798990	-0.062495	1.093019	0.510251	0.228026	0.987297	0.051838	0.226022	1.021430	0.043533	0.327016	1.165804	0.097638	0.270682	1.045792	0.528350	-0.297694	0.981315	0.036326	-0.288870	0.979284	0.038891	-0.406492	1.117899	0.118132	-0.377906	0.124829	0.049428	0.046378	0.035566	0.072970	0.045014	0.041880	0.049731	-0.001039	0.621242	0.521170	0.064336	0.669179	0.574361	0.027884	0.706051	0.607589	0.059690
6	0.013888889	1.097562	1.006760	0.124387	1.089310	1.022390	-0.220007	1.231575	1.060945	0.035216	1.234828	1.062471	-0.133934	0.917482	1.497538	-0.094075	1.054858	1.385070	0.017261	1.047632	1.360724	-0.163237	0.653238	1.666454	-0.098414	0.575139	1.531843	-0.094437	0.695723	1.606309	0.013332	0.813539	1.427364	0.118200	0.963109	1.486467	0.065691	0.939489	1.106631	0.129514	0.949237	1.266290	0.173278	0.833937	0.865442	0.060119	0.922166	1.434471	-0.231656	0.902729	1.020809	-0.182337	0.908325	1.175098	-0.267460	0.794306	0.798975	-0.062523	1.093053	0.510251	0.228028	0.987320	0.051847	0.226022	1.021432	0.043524	0.327036	1.165808	0.097647	0.270687	1.045797	0.528342	-0.297709	0.981332	0.036330	-0.288860	0.979298	0.038887	-0.406488	1.117907	0.118131	-0.377884	0.124816	0.049405	0.046277	0.035537	0.072969	0.044927	0.041647	0.049753	-0.001250	0.621240	0.521143	0.064284	0.669177	0.574342	0.027825	0.706041	0.607579	0.059644
7	0.016666667	1.097593	1.006745	0.124361	1.089385	1.022382	-0.220033	1.231630	1.060935	0.035203	1.234875	1.062429	-0.133965	0.917506	1.497522	-0.094095	1.054918	1.385056	0.017246	1.047692	1.360716	-0.163262	0.653300	1.666441	-0.098400	0.575198	1.531834	-0.094447	0.695769	1.606308	0.013336	0.813614	1.427339	0.118189	0.963155	1.486439	0.065688	0.939497	1.106616	0.129448	0.949278	1.266264	0.173239	0.833923	0.865420	0.060077	0.922199	1.434460	-0.231674	0.902751	1.020789	-0.182336	0.908341	1.175077	-0.267485	0.794354	0.798952	-0.062551	1.093096	0.510270	0.228017	0.987327	0.051849	0.226022	1.021418	0.043512	0.327021	1.165820	0.097621	0.270685	1.045787	0.528337	-0.297732	0.981318	0.036329	-0.288864	0.979299	0.038884	-0.406486	1.117922	0.118131	-0.377914	0.124791	0.049386	0.046172	0.035544	0.072972	0.044831	0.041864	0.049739	-0.001215	0.621240	0.521137	0.064199	0.669157	0.574329	0.027758	0.706047	0.607558	0.059563
